#!OML:ASF F:\VICON\USERDATA\INSTALL\rory3\rory3.ASF
:FULLY-SPECIFIED
:DEGREES
53
root 0.5004255862671141 17.943477471102987 13.789366479027308 2.212314370707643 -1.5090063461691374 -5.298088949448099
lfemur -36.74690876003774 5.347258329035356 -18.23516568100439
ltibia 78.1833872106955
lfoot -0.5109959087602671 -8.587197542865974
ltoes -11.560649270992581
rfemur -0.23324514374050054 4.2612499920909235 32.450032362340835
rtibia 33.56157755294846
rfoot 2.6524261706062386 -5.640612432589806
rtoes 5.639054644358868
lowerback 14.70045623236642 2.225158295589725 6.759281916612643
upperback -1.3931180087008275 4.438967740902978 1.9631662026696015
thorax -9.149211081979937 1.8979971993959315 -1.9177918354832335
lowerneck -19.843332831666572 -4.668575354391052 -2.2843186343040545
upperneck 12.243894549776288 -6.744596998528621 4.991981589972555
head 7.272685100639493 -2.6394795302898983 1.3145693645299168
lclavicle 2.9801515526439752e-15 1.1900897868484632e-16
lhumerus -56.400791119544145 -9.648134571259739 97.09396241301415
lradius 110.52533490285253
lwrist 34.28283172481982
lhand -20.552404375926788 3.5214090992098983
lfingers 7.125019999999999
lthumb 5.522027738729145 33.267977359562146
rclavicle 2.9801381671163074e-15 1.1900166246856274e-16
rhumerus -38.69698117249905 15.06058356088823 -95.25971030511221
rradius 111.61644463449868
rwrist -15.29646354200398
rhand -16.04450478228574 38.70057717738566
rfingers 7.125019999999999
rthumb 10.161509134304428 9.000223876988937
54
root 0.5140309057243712 18.07257851857182 13.832581040831828 2.1126294321588124 -0.9525358297344955 -5.041296439945123
lfemur -36.49143462550744 4.2920671086981 -19.061690347489467
ltibia 69.75969803991971
lfoot 1.3478589141408195 -8.162526637825493
ltoes -10.269191496926025
rfemur 0.4748696732396418 4.272370382365236 31.830325450563357
rtibia 31.971428995412676
rfoot 5.314344007400075 -5.301973863383215
rtoes 5.345801574280692
lowerback 14.149944352579098 2.317044213570746 6.742387898397298
upperback -1.589972905145794 4.373710350221115 1.7638042248031567
thorax -9.050848181388115 1.9119989281705387 -1.9590274332272455
lowerneck -19.76742148167522 -4.843688436255393 -2.3396045668116967
upperneck 12.409205502635963 -6.855811441705467 5.062460444665624
head 7.298328256750381 -2.61436857924761 1.3432559131608501
lclavicle 2.9801515526439752e-15 1.1900897868484632e-16
lhumerus -56.40663428934343 -9.516776501120077 96.97493073316579
lradius 110.68698934189065
lwrist 34.28287119579425
lhand -20.529645894912036 3.50890062117769
lfingers 7.125019999999999
lthumb 5.549603847554163 33.24738109122746
rclavicle 2.9801381671163074e-15 1.1900166246856284e-16
rhumerus -39.317509417091394 15.528161586900346 -95.35337910161368
rradius 111.14702629276623
rwrist -15.372509932377293
rhand -16.036206327189728 38.63334970041308
rfingers 7.125019999999999
rthumb 10.217051143138296 8.92713044042044
55
root 0.5225678989709976 18.15848688756543 14.096839235350387 2.054826511824651 -0.5702755643327002 -4.971472242537484
lfemur -34.30019150133987 3.7201139101198106 -19.253696690487594
ltibia 61.19151051803247
lfoot 0.9228030987281496 -8.75323379559972
ltoes -9.118856232701546
rfemur 0.30527381378147567 4.5169349261698954 31.38614296566014
rtibia 32.83125328412228
rfoot 7.347696320437459 -5.098885852914164
rtoes 4.633605715996236
lowerback 13.693352904711476 2.428963443003068 6.649358785236491
upperback -1.7711519542498464 4.396998833532341 1.5862648874450151
thorax -8.986558504259682 1.9192484083111827 -2.0007821404915824
lowerneck -19.590425509881722 -4.872769221722751 -2.3517313571386524
upperneck 12.592170623333315 -6.907638080041574 5.188715323125041
head 7.316054590570047 -2.597112534157485 1.3719546768255024
lclavicle 2.9801515526439752e-15 1.1900897868484632e-16
lhumerus -56.233401474292336 -9.561920353568661 96.85066561933562
lradius 111.06583885639323
lwrist 34.315006699018745
lhand -20.60036757148106 3.4132403504941697
lfingers 7.125019999999999
lthumb 5.531666033151411 33.13416076927987
rclavicle 2.9801381671163074e-15 1.1900166246856286e-16
rhumerus -40.208361223973625 15.870693020593528 -95.61002401898254
rradius 110.62229084218295
rwrist -15.366222189948424
rhand -15.985861506954542 38.63636352845212
rfingers 7.125019999999999
rthumb 10.239694534376602 8.85264062502674
56
root 0.5267452956003669 18.20691554166501 14.477215408904609 2.009079132711061 -0.34738278130820666 -5.04550164711106
lfemur -32.409619831032444 3.3588160675464653 -19.441536867820776
ltibia 53.24163212812643
lfoot 1.1581631865782576 -9.224993930881688
ltoes -7.885658734196873
rfemur 0.8763365087629573 5.081151185100753 31.454376476035648
rtibia 36.06637852671331
rfoot 8.769244343094762 -4.852981791497415
rtoes 4.104461967586463
lowerback 13.346503097251578 2.504523309710293 6.453779570877851
upperback -1.9120145162234674 4.4355449380588325 1.4505323272401924
thorax -8.892747227122275 1.937096084527187 -1.9292915387674805
lowerneck -19.52613761475133 -4.939383509731053 -2.3949471858104983
upperneck 12.625947845209788 -6.951807772102729 5.300374725006361
head 7.307951383055362 -2.608127527041029 1.3860577893739097
lclavicle 2.9801515526439752e-15 1.1900897868484632e-16
lhumerus -55.555961303549594 -9.629426232306193 96.73824696876825
lradius 111.32841471752688
lwrist 34.136439187975505
lhand -20.63811805412409 3.375101893894609
lfingers 7.125019999999999
lthumb 5.59915775227616 33.17176215689328
rclavicle 2.980138167116308e-15 1.190016624685632e-16
rhumerus -40.737028071615825 16.3324304126958 -95.89583339242905
rradius 110.02390327846587
rwrist -15.346136617058132
rhand -15.940031157393783 38.603435994713344
rfingers 7.125019999999999
rthumb 10.33958794522642 8.853559040723978
